<svg width="23" height="26" viewBox="0 0 23 26" fill="none" xmlns="http://www.w3.org/2000/svg">
<g clip-path="url(#clip0_45_1485)">
<path d="M17.9864 4.13864C16.7814 2.93312 14.8257 2.93312 13.6207 4.13864L4.5336 13.2257C2.45494 15.3048 2.45494 18.673 4.5336 20.7521C6.61276 22.8313 9.9809 22.8313 12.0601 20.7521L19.5668 13.2454C20.1051 12.7071 20.9841 12.7071 21.5224 13.2454C22.0608 13.7838 22.0608 14.6628 21.5224 15.2011L14.0157 22.7078C10.855 25.8685 5.73863 25.8685 2.57791 22.7078C-0.580333 19.5471 -0.580333 14.4307 2.57791 11.27L11.665 2.18294C13.9515 -0.102648 17.6555 -0.102648 19.9421 2.18294C22.2287 4.46854 22.2287 8.17349 19.9421 10.4601L11.2501 19.152C9.83768 20.5645 7.54616 20.5645 6.13372 19.152C4.72078 17.7396 4.72078 15.4481 6.13372 14.0356L13.2453 6.92401C13.7836 6.38571 14.6627 6.38571 15.201 6.92401C15.7393 7.46232 15.7393 8.3414 15.201 8.87971L8.08941 15.9913C7.75852 16.3222 7.75852 16.8655 8.08941 17.1963C8.42029 17.5272 8.96354 17.5272 9.29443 17.1963L17.9864 8.50437C19.1914 7.29935 19.1914 5.34366 17.9864 4.13864Z" fill="#FF5E03"/>
</g>
<defs>
<clipPath id="clip0_45_1485">
<rect width="22.125" height="25.2857" fill="white"/>
</clipPath>
</defs>
</svg>
